HIERARCHY
ROOT SpineBase
{
  OFFSET 0.000000 0.000000 0.000000
  CHANNELS 6 Xposition Yposition Zposition Zrotation Xrotation Yrotation
  JOINT SpineMid
  {
    OFFSET 0.000000 31.877414 0.000000
    CHANNELS 3 Zrotation Xrotation Yrotation
    JOINT SpineShoulder
    {
      OFFSET 0.300368 23.649694 -0.619285
      CHANNELS 3 Zrotation Xrotation Yrotation
      JOINT Neck
      {
        OFFSET 0.217516 7.822592 -0.499446
        CHANNELS 3 Zrotation Xrotation Yrotation
        JOINT Head
        {
          OFFSET 2.831499 12.818662 4.547500
          CHANNELS 3 Zrotation Xrotation Yrotation
          End Site
          {
            OFFSET 0 0 0
          }
        }
      }
      JOINT ShoulderLeft
      {
        OFFSET -6.619200 -3.101274 -14.284360
        CHANNELS 3 Zrotation Xrotation Yrotation
        JOINT ElbowLeft
        {
          OFFSET -3.261506 -24.404096 -9.059475
          CHANNELS 3 Zrotation Xrotation Yrotation
          JOINT WristLeft
          {
            OFFSET 4.678585 -24.512903 -3.708893
            CHANNELS 3 Zrotation Xrotation Yrotation
            JOINT HandLeft
            {
              OFFSET 1.750167 -8.149153 3.670864
              CHANNELS 3 Zrotation Xrotation Yrotation
              JOINT HandTipLeft
              {
                OFFSET 1.378690 -7.869794 0.105194
                CHANNELS 3 Zrotation Xrotation Yrotation
                End Site
                {
                  OFFSET 0 0 0
                }
              }
              JOINT ThumbLeft
              {
                OFFSET 3.217114 1.675028 5.546090
                CHANNELS 3 Zrotation Xrotation Yrotation
                End Site
                {
                  OFFSET 0 0 0
                }
              }
            }
          }
        }
      }
      JOINT ShoulderRight
      {
        OFFSET 7.642396 -6.130201 13.755246
        CHANNELS 3 Zrotation Xrotation Yrotation
        JOINT ElbowRight
        {
          OFFSET -0.023028 -28.159789 7.414064
          CHANNELS 3 Zrotation Xrotation Yrotation
          JOINT WristRight
          {
            OFFSET 0.707468 -23.057474 1.944828
            CHANNELS 3 Zrotation Xrotation Yrotation
            JOINT HandRight
            {
              OFFSET 1.957326 -6.675937 0.539460
              CHANNELS 3 Zrotation Xrotation Yrotation
              JOINT HandTipRight
              {
                OFFSET -4.306567 -6.373640 -2.339119
                CHANNELS 3 Zrotation Xrotation Yrotation
                End Site
                {
                  OFFSET 0 0 0
                }
              }
              JOINT ThumbRight
              {
                OFFSET 3.285220 -2.269376 -1.524784
                CHANNELS 3 Zrotation Xrotation Yrotation
                End Site
                {
                  OFFSET 0 0 0
                }
              }
            }
          }
        }
      }
    }
  }
  JOINT HipLeft
  {
    OFFSET -2.196179 1.777487 -8.679408
    CHANNELS 3 Zrotation Xrotation Yrotation
    JOINT KneeLeft
    {
      OFFSET -8.817563 -37.227208 -6.607121
      CHANNELS 3 Zrotation Xrotation Yrotation
      JOINT AnkleLeft
      {
        OFFSET -8.110985 -35.735703 5.065947
        CHANNELS 3 Zrotation Xrotation Yrotation
        JOINT FootLeft
        {
          OFFSET 4.338669 -7.111966 -4.344378
          CHANNELS 3 Zrotation Xrotation Yrotation
          End Site
          {
            OFFSET 0 0 0
          }
        }
      }
    }
  }
  JOINT HipRight
  {
    OFFSET 4.825602 0.136224 2.096293
    CHANNELS 3 Zrotation Xrotation Yrotation
    JOINT KneeRight
    {
      OFFSET -6.130539 -39.662333 1.621416
      CHANNELS 3 Zrotation Xrotation Yrotation
      JOINT AnkleRight
      {
        OFFSET -12.981440 -35.325758 3.958577
        CHANNELS 3 Zrotation Xrotation Yrotation
        JOINT FootRight
        {
          OFFSET 3.580853 -7.583278 -3.622437
          CHANNELS 3 Zrotation Xrotation Yrotation
          End Site
          {
            OFFSET 0 0 0
          }
        }
      }
    }
  }
}
MOTION
Frames: 13
Frame Time: 0.033333
-122.415385 82.697587 313.955151 -0.000000 0.000000 -56.910484 -0.000000 0.000000 56.910484 -0.000000 0.000000 0.000000 -0.000000 0.000000 0.000000 0.000000 0.000000 0.000000 -0.000000 0.000000 0.000000 -0.000000 0.000000 0.000000 -0.000000 0.000000 0.000000 -0.000000 0.000000 0.000000 0.000000 0.000000 0.000000 0.000000 0.000000 0.000000 -0.000000 0.000000 0.000000 -0.000000 0.000000 0.000000 -0.000000 0.000000 0.000000 -0.000000 0.000000 0.000000 0.000000 0.000000 0.000000 0.000000 0.000000 0.000000 -0.000000 0.000000 56.910484 -0.000000 0.000000 0.000000 -0.000000 0.000000 0.000000 0.000000 0.000000 0.000000 -0.000000 0.000000 56.910484 -0.000000 0.000000 0.000000 -0.000000 0.000000 0.000000 0.000000 0.000000 0.000000
-122.149017 82.862792 313.596915 0.190738 0.519868 -57.393825 0.335156 -0.440812 57.394249 -0.000000 0.000000 0.000000 -0.000000 0.000000 0.000000 0.000000 0.000000 0.000000 0.012981 -1.281141 0.167249 0.652648 0.676742 -0.393635 -2.179477 3.137286 0.136111 2.150682 -5.113358 -0.233911 0.000000 0.000000 0.000000 0.000000 0.000000 0.000000 -0.000000 0.000000 0.000000 -0.000000 0.000000 0.000000 -1.411806 1.407195 0.317308 5.838922 -4.403462 0.337864 0.000000 0.000000 0.000000 0.000000 0.000000 0.000000 1.225223 -1.921749 57.915933 0.781986 1.540669 -0.513847 -4.726294 -2.892052 1.047148 0.000000 0.000000 0.000000 0.335156 -0.440812 57.394249 -0.000000 0.000000 0.000000 -1.929625 1.896708 1.849426 0.000000 0.000000 0.000000
-121.916408 83.013432 313.303852 0.353001 0.943019 -57.787554 0.609717 -0.801343 57.788913 -0.000000 0.000000 0.000000 -0.000000 0.000000 0.000000 0.000000 0.000000 0.000000 0.066991 -2.340030 0.291511 1.104579 1.274185 -0.703950 -4.006047 5.873585 0.338560 3.706920 -9.337937 -0.327381 0.000000 0.000000 0.000000 0.000000 0.000000 0.000000 0.667657 0.527611 0.172491 -0.669271 -0.525563 -0.178634 -3.004392 2.778666 0.651168 10.819418 -8.131502 1.001819 0.000000 0.000000 0.000000 0.000000 0.000000 0.000000 2.230582 -3.341058 58.722519 2.445420 3.078654 -0.894600 -9.083618 -5.201121 1.583050 0.000000 0.000000 0.000000 0.956879 -2.033997 57.909202 0.859937 0.948923 -0.118821 -3.396226 3.398459 3.327320 0.000000 0.000000 0.000000
-121.717559 83.149507 313.075962 0.486228 1.267743 -58.097891 0.819347 -1.082728 58.100254 -0.000000 0.000000 0.000000 -0.000000 0.000000 0.000000 0.000000 0.000000 0.000000 0.159898 -3.173638 0.373229 1.336283 1.812801 -0.911312 -5.416446 8.143312 0.559635 4.639403 -12.654845 -0.387950 0.000000 0.000000 0.000000 0.000000 0.000000 0.000000 0.872693 0.626453 0.224813 0.014486 -0.103386 -0.137772 -5.613633 3.485515 0.831565 14.971528 -11.090588 1.814977 0.000000 0.000000 0.000000 0.000000 0.000000 0.000000 2.998168 -4.283907 59.321897 2.988558 3.993117 -1.185569 -11.037489 -6.203183 1.971018 0.000000 0.000000 0.000000 1.292692 -2.700769 58.263877 1.127256 1.253535 -0.160328 -4.379260 4.544952 4.407922 0.000000 0.000000 0.000000
-121.552471 83.271018 312.913245 0.589938 1.492628 -58.329420 0.960691 -1.285735 58.332515 -0.000000 0.000000 0.000000 -0.000000 0.000000 0.000000 0.000000 0.000000 0.000000 0.289862 -3.780904 0.412642 1.334037 2.308185 -1.001066 -6.354071 9.895935 0.754971 4.907141 -15.050063 -0.498809 0.000000 0.000000 0.000000 0.000000 0.000000 0.000000 0.992754 0.616501 0.255903 0.158840 0.311511 -0.137973 -7.642984 4.001131 0.976725 18.257097 -13.169598 2.620958 0.000000 0.000000 0.000000 0.000000 0.000000 0.000000 3.515983 -4.770093 59.708139 3.071788 4.516289 -1.343392 -11.262647 -6.097995 2.244420 0.000000 0.000000 0.000000 1.523521 -3.141332 58.525911 1.288927 1.448633 -0.187950 -4.869867 5.370565 5.078934 0.000000 0.000000 0.000000
-121.421142 83.377963 312.815701 0.663727 1.616542 -58.485307 0.774929 -0.556751 58.491354 -0.594216 -0.664824 -0.010562 -0.000000 0.000000 0.000000 0.000000 0.000000 0.000000 0.455352 -4.162336 0.409775 1.090824 2.768820 -0.964333 -6.774744 11.094831 0.889660 4.470747 -16.506129 -0.714106 0.000000 0.000000 0.000000 0.000000 0.000000 0.000000 1.029096 0.499701 0.266364 0.371229 0.947894 -0.118529 -9.550422 3.915504 0.927237 20.550691 -14.228377 3.280622 0.000000 0.000000 0.000000 0.000000 0.000000 0.000000 3.777144 -4.812134 59.877871 2.695581 4.657796 -1.360900 -9.779898 -4.883970 2.408717 0.000000 0.000000 0.000000 1.644470 -3.358675 58.696994 1.345966 1.535709 -0.200874 -4.865668 5.899129 5.336414 0.000000 0.000000 0.000000
-121.332031 83.455416 312.836151 0.720168 1.579236 -58.636553 0.737909 -0.550518 58.642938 -0.634214 -0.662542 -0.011857 -0.000000 0.000000 0.000000 0.000000 0.000000 0.000000 0.705383 -4.295247 0.343973 0.393561 3.215598 -0.731148 -6.243163 12.261029 1.154296 3.070009 -17.770160 -1.341649 0.000000 0.000000 0.000000 0.000000 0.000000 0.000000 0.903739 0.231127 0.236061 0.807736 2.260496 -0.049660 -11.393522 -0.068559 -0.570767 18.930154 -11.207579 4.408197 0.000000 0.000000 0.000000 0.000000 0.000000 0.000000 3.824743 -4.602216 59.977293 2.327294 4.440358 -1.261014 -4.630506 -1.037142 1.775203 0.000000 0.000000 0.000000 1.674639 -3.393219 58.864282 1.312357 1.611185 -0.214359 -3.163569 6.401570 4.648388 0.000000 0.000000 0.000000
-121.269036 83.507800 312.958394 0.740743 1.412433 -58.478263 0.615951 -0.505060 58.484251 -0.632316 -0.623225 -0.012079 -0.000000 0.000000 0.000000 0.000000 0.000000 0.000000 0.988486 -4.236275 0.239582 -0.973444 4.239751 -0.166988 -4.789210 11.655801 0.891432 0.979140 -17.332569 -1.902142 0.000000 0.000000 0.000000 0.000000 0.000000 0.000000 -0.000000 0.000000 0.000000 2.013082 3.153417 0.211555 -13.200009 -0.911322 -1.010117 22.883700 -11.121693 4.146621 0.000000 0.000000 0.000000 0.000000 0.000000 0.000000 3.360471 -3.661593 59.502572 0.682097 3.353246 -0.931948 -0.424058 2.828169 1.969736 0.000000 0.000000 0.000000 1.763742 -3.360510 58.753771 1.210836 1.841777 -0.255251 -1.536053 5.118831 3.172718 0.000000 0.000000 0.000000
-121.193066 83.540910 313.241179 0.779681 1.117176 -58.351366 0.416017 -0.428737 58.357574 -0.633073 -0.537960 -0.012715 0.820317 -0.471462 -0.184061 0.000000 0.000000 0.000000 1.260165 -3.855321 0.091305 -1.256871 3.856394 -0.006574 -4.330989 11.244155 0.946994 -2.106859 -15.282742 -2.365788 0.000000 0.000000 0.000000 0.000000 0.000000 0.000000 -0.000000 0.000000 0.000000 2.157674 3.707988 0.226462 -13.208745 -1.366746 -1.109964 24.757021 -9.259971 1.851613 0.000000 0.000000 0.000000 0.000000 0.000000 0.000000 2.642839 -2.336315 58.944856 -0.154119 2.359220 -0.526258 1.101828 4.219600 1.810161 0.000000 0.000000 0.000000 0.811967 -2.494376 58.457266 0.919407 0.881079 -0.105837 -1.287489 4.652176 2.824920 0.000000 0.000000 0.000000
-121.230766 83.651403 313.181077 0.668568 1.058111 -58.358314 0.550093 -1.124263 58.357538 -0.000000 0.000000 0.000000 0.839255 -0.423381 -0.201705 0.000000 0.000000 0.000000 1.481472 -3.381587 -0.054891 -2.178020 4.025804 0.415001 -3.154736 10.562169 0.824212 -4.346622 -13.468994 -2.611866 0.000000 0.000000 0.000000 0.000000 0.000000 0.000000 0.392488 -0.847914 0.106727 1.916864 5.410343 0.107572 -14.368467 -2.530857 -1.622373 26.668803 -8.571275 1.422435 0.000000 0.000000 0.000000 0.000000 0.000000 0.000000 2.320387 -0.510831 58.406262 -3.598957 1.833995 -0.402022 3.790968 4.239010 2.286592 0.000000 0.000000 0.000000 0.550093 -1.124263 58.357538 -0.709056 -0.811052 0.212919 0.045847 4.739541 1.960609 0.000000 0.000000 0.000000
-121.312051 83.820645 313.008563 0.490509 1.164398 -58.516077 0.347712 -0.229935 58.516394 -0.476054 -0.747764 -0.006074 0.947244 -0.869471 -0.137422 0.000000 0.000000 0.000000 1.531196 -2.630202 -0.183618 -2.604105 3.946387 0.727910 -1.822479 8.981799 0.733914 -6.110868 -10.641080 -2.525522 0.000000 0.000000 0.000000 0.000000 0.000000 0.000000 0.263990 -0.906283 0.072184 2.156489 4.712243 0.134235 -17.043404 1.434631 -0.390718 28.101734 -12.785066 3.105948 0.000000 0.000000 0.000000 0.000000 0.000000 0.000000 2.383916 1.470640 58.001200 -7.024802 2.012198 -0.427092 1.584643 2.361381 5.135591 0.000000 0.000000 0.000000 0.263497 -0.229917 58.403379 -1.332536 -2.389079 0.553276 0.572501 5.261411 1.435429 0.000000 0.000000 0.000000
-121.394436 83.994955 312.573817 0.359987 1.156204 -58.881227 0.316603 -0.164708 58.879254 -0.382605 -0.800039 -0.002528 0.974456 -0.712223 -0.183069 0.000000 0.000000 0.000000 1.465517 -2.073104 -0.242504 -2.761706 3.849387 0.896526 -0.938764 8.079078 0.751709 -6.642699 -9.103849 -2.430335 0.000000 0.000000 0.000000 0.000000 0.000000 0.000000 0.289970 -0.928771 0.079286 1.581531 3.714542 0.092797 -16.690660 3.874333 0.615257 26.007798 -13.440452 2.838403 0.000000 0.000000 0.000000 0.000000 0.000000 0.000000 1.761439 3.509718 57.749196 -9.969944 1.761842 -0.500374 3.043366 1.466491 6.132451 0.000000 0.000000 0.000000 0.227780 0.548336 58.728222 -1.889884 -3.505579 0.823460 1.065966 5.197293 0.611007 0.000000 0.000000 0.000000
-121.534394 84.135810 311.838774 0.193366 1.196402 -59.171581 0.324514 -0.129551 59.166777 -0.248364 -0.851367 0.002464 0.928954 -0.467412 -0.223246 0.000000 0.000000 0.000000 1.212412 -1.777053 -0.195178 -2.419826 3.565825 0.812181 -1.348764 9.137581 0.894066 -4.579811 -9.792742 -2.184078 0.000000 0.000000 0.000000 0.000000 0.000000 0.000000 0.627934 -1.058238 0.171575 0.108691 2.260534 -0.082731 -17.429481 4.815998 0.866625 29.970961 -16.484052 6.020566 0.000000 0.000000 0.000000 0.000000 0.000000 0.000000 0.909229 5.293152 57.500665 -11.967973 1.394510 -0.623494 10.765793 3.973365 4.734964 0.000000 0.000000 0.000000 0.576140 0.874652 59.048845 -1.981014 -4.196092 1.109000 1.091212 5.325567 -0.110790 0.000000 0.000000 0.000000
